HIERARCHY
ROOT Pelvis
{
	OFFSET 0.000000 0.000000 0.000000
	CHANNELS 6 Xposition Yposition Zposition Xrotation Yrotation Zrotation
	JOINT LeftUpLeg_virtual
	{
		OFFSET 0.000000 0.000000 0.000000
		CHANNELS 3 Xrotation Yrotation Zrotation
		JOINT LeftUpLeg
		{
			OFFSET 18.735201 -5.666702 -4.541200
			CHANNELS 3 Xrotation Yrotation Zrotation
			JOINT LeftLeg
			{
				OFFSET -0.021200 -31.938179 0.493100
				CHANNELS 3 Xrotation Yrotation Zrotation
				JOINT LeftFoot
				{
					OFFSET 0.021200 -31.938179 -4.336299
					CHANNELS 3 Xrotation Yrotation Zrotation
					JOINT LeftToeBase
					{
						OFFSET 0.943001 -26.722000 15.023500
						CHANNELS 3 Xrotation Yrotation Zrotation
						End Site
						{
							OFFSET 0 0 0
						}
					}
				}
			}
		}
	}
	JOINT RightUpLeg_virtual
	{
		OFFSET 0.000000 0.000000 0.000000
		CHANNELS 3 Xrotation Yrotation Zrotation
		JOINT RightUpLeg
		{
			OFFSET -18.735201 -5.666702 -4.541200
			CHANNELS 3 Xrotation Yrotation Zrotation
			JOINT RightLeg
			{
				OFFSET 0.018946 -31.938133 0.493100
				CHANNELS 3 Xrotation Yrotation Zrotation
				JOINT RightFoot
				{
					OFFSET -0.018946 -31.938126 -4.336299
					CHANNELS 3 Xrotation Yrotation Zrotation
					JOINT RightToeBase
					{
						OFFSET -0.943001 -26.722004 15.023500
						CHANNELS 3 Xrotation Yrotation Zrotation
						End Site
						{
							OFFSET 0 0 0
						}
					}
				}
			}
		}
	}
	JOINT Hips_virtual
	{
		OFFSET 0.000000 0.000000 0.000000
		CHANNELS 3 Xrotation Yrotation Zrotation
		JOINT Hips
		{
			OFFSET -0.000000 -0.000000 -0.000000
			CHANNELS 3 Xrotation Yrotation Zrotation
			JOINT Spine
			{
				OFFSET 0.000000 10.199997 -0.299500
				CHANNELS 3 Xrotation Yrotation Zrotation
				JOINT Spine1
				{
					OFFSET 0.000000 11.900002 -1.516600
					CHANNELS 3 Xrotation Yrotation Zrotation
					JOINT Spine2
					{
						OFFSET 0.000000 13.600006 -2.842500
						CHANNELS 3 Xrotation Yrotation Zrotation
						JOINT Neck_virtual
						{
							OFFSET 0.000000 0.000000 0.000000
							CHANNELS 3 Xrotation Yrotation Zrotation
							JOINT Neck
							{
								OFFSET 0.000000 9.624100 -2.890100
								CHANNELS 3 Xrotation Yrotation Zrotation
								JOINT Head
								{
									OFFSET 0.000000 14.068802 -1.351900
									CHANNELS 3 Xrotation Yrotation Zrotation
									End Site
									{
										OFFSET 0 0 0
									}
								}
							}
						}
						JOINT LeftShoulder_virtual
						{
							OFFSET 0.000000 0.000000 0.000000
							CHANNELS 3 Xrotation Yrotation Zrotation
							JOINT LeftShoulder
							{
								OFFSET 15.263000 10.923401 -0.547700
								CHANNELS 3 Xrotation Yrotation Zrotation
								JOINT LeftArm
								{
									OFFSET 25.438599 -2.830597 -13.032500
									CHANNELS 3 Xrotation Yrotation Zrotation
									JOINT LeftForeArm
									{
										OFFSET 29.960503 0.000000 0.000000
										CHANNELS 3 Xrotation Yrotation Zrotation
										JOINT LeftHand
										{
											OFFSET 27.849251 0.000000 0.000000
											CHANNELS 3 Xrotation Yrotation Zrotation
											End Site
											{
												OFFSET 0 0 0
											}
										}
									}
								}
							}
						}
						JOINT RightShoulder_virtual
						{
							OFFSET 0.000000 0.000000 0.000000
							CHANNELS 3 Xrotation Yrotation Zrotation
							JOINT RightShoulder
							{
								OFFSET -15.263000 10.923401 -0.547700
								CHANNELS 3 Xrotation Yrotation Zrotation
								JOINT RightArm
								{
									OFFSET -25.438599 -2.830597 -13.032500
									CHANNELS 3 Xrotation Yrotation Zrotation
									JOINT RightForeArm
									{
										OFFSET -29.960503 0.000000 0.000000
										CHANNELS 3 Xrotation Yrotation Zrotation
										JOINT RightHand
										{
											OFFSET -27.849251 0.000000 0.000000
											CHANNELS 3 Xrotation Yrotation Zrotation
											End Site
											{
												OFFSET 0 0 0
											}
										}
									}
								}
							}
						}
					}
				}
			}
		}
	}
}
MOTION
Frames: 8
Frame Time: 0.03333333
1.739908 81.918289 38.175728 0.000000 0.000000 0.000000 11.260340 -1.382663 -5.219007 -79.025173 -3.953957 7.411821 127.077923 6.387995 0.548099 27.320982 0.512264 0.815081 0.000000 0.000000 0.000000 11.260340 -1.382663 -5.219007 -36.581844 -11.402337 6.935161 60.780822 0.477509 1.327093 -35.007137 3.251293 -8.177606 0.000000 0.000000 0.000000 11.260340 -1.382663 -5.219007 -0.000001 0.000000 0.000000 10.000823 1.835954 7.300842 2.029114 -0.047010 0.508498 0.000000 0.000000 0.000000 4.987198 -0.052526 0.186541 -1.224468 0.052407 -0.107542 0.000000 0.000000 0.000000 4.987198 -0.052526 0.186541 0.557757 -4.314608 -11.777485 13.923813 -4.816975 -56.121390 0.055848 -89.980215 0.055863 0.000000 0.000000 0.000000 4.987198 -0.052526 0.186541 0.567974 4.488693 11.813869 -16.187041 25.518750 44.451172 179.992642 89.728038 -179.992055 0.000000 0.000000 0.000000 
1.664918 82.569672 43.092648 0.000000 0.000000 0.000000 12.165649 -1.491393 -3.800689 -94.691243 -2.731337 7.614431 125.875523 6.587492 -0.501762 21.360759 0.556496 3.495210 0.000000 0.000000 0.000000 12.165649 -1.491393 -3.800689 -31.929796 -10.095438 7.382827 58.373713 -1.160504 0.150695 -37.009920 3.290282 -7.847039 0.000000 0.000000 0.000000 12.165649 -1.491393 -3.800689 0.000000 0.000000 0.000000 10.877174 2.411474 5.525791 2.512571 0.388421 -0.101538 0.000000 0.000000 0.000000 5.375359 0.319863 -0.444560 -1.321906 -0.027268 0.048307 0.000000 0.000000 0.000000 5.375359 0.319863 -0.444560 0.550769 -4.131759 -11.649553 15.857061 -4.083520 -55.500529 -0.000082 -84.180886 -0.000042 0.000000 0.000000 0.000000 5.375359 0.319863 -0.444560 0.473738 5.340372 11.212078 -18.532567 23.013662 45.080714 -179.999008 87.952728 179.999090 0.000000 0.000000 0.000000 
1.560887 83.475098 47.213097 0.000000 0.000000 0.000000 12.560754 -1.226284 -2.647584 -103.325176 -2.224650 8.295233 120.661835 3.360868 -2.048036 12.704570 0.146787 2.614059 0.000000 0.000000 0.000000 12.560754 -1.226284 -2.647584 -27.134192 -8.883710 7.843882 54.980789 -1.307575 -0.901121 -37.646582 1.394719 -8.077020 0.000000 0.000000 0.000000 12.560754 -1.226284 -2.647584 0.000001 0.000000 0.000000 11.672599 2.678496 3.920199 2.983597 0.736435 -0.674759 0.000000 0.000000 0.000000 5.744164 0.609385 -1.028370 -1.252111 -0.081854 0.153076 0.000000 0.000000 0.000000 5.744164 0.609385 -1.028370 0.538959 -4.141282 -11.327447 18.370878 -3.661168 -55.120870 0.000036 -80.178873 0.000030 0.000000 0.000000 0.000000 5.744164 0.609385 -1.028370 0.447438 5.899440 10.987406 -20.430616 18.612569 45.715197 179.998967 84.929393 -179.999021 0.000000 0.000000 0.000000 
1.471836 84.105713 51.184216 0.000000 0.000000 0.000000 12.283113 -0.892153 -2.246640 -104.646571 -3.069503 9.167132 112.566265 -1.956268 -3.767279 1.532068 0.146725 -2.048611 0.000000 0.000000 0.000000 12.283113 -0.892153 -2.246640 -22.552658 -8.097240 8.515111 52.295429 -0.924134 -1.819857 -36.982756 -1.176609 -7.945189 0.000000 0.000000 0.000000 12.283113 -0.892153 -2.246640 0.000000 0.000000 0.000000 12.227738 3.038441 2.965103 3.317689 1.004296 -1.066091 0.000000 0.000000 0.000000 5.969679 0.834223 -1.426133 -0.976330 -0.121964 0.204469 0.000000 0.000000 0.000000 5.969679 0.834223 -1.426133 0.522132 -4.229543 -10.713357 21.185298 -3.140015 -55.477580 -0.000006 -77.628262 -0.000008 0.000000 0.000000 0.000000 5.969679 0.834223 -1.426133 0.476050 6.147941 11.241234 -21.265166 13.374101 46.275430 179.999704 82.010156 -179.999718 0.000000 0.000000 0.000000 
1.433976 84.299149 55.875412 0.000000 0.000000 0.000000 11.229943 -0.846998 -3.010565 -100.476358 -4.343504 9.923210 102.939618 -7.446884 -4.772917 -10.116422 2.397714 -7.740446 0.000000 0.000000 0.000000 11.229943 -0.846998 -3.010565 -17.739731 -7.759372 9.464648 50.705306 0.233119 -2.417474 -34.725474 -3.850002 -6.846994 0.000000 0.000000 0.000000 11.229943 -0.846998 -3.010565 0.000000 0.000000 0.000000 12.297729 3.894800 3.088057 3.337154 1.195935 -1.180667 0.000000 0.000000 0.000000 5.874700 1.001687 -1.551851 -0.466720 -0.155864 0.213488 0.000000 0.000000 0.000000 5.874700 1.001687 -1.551851 0.502960 -4.272990 -9.818080 24.079251 -2.115456 -56.822048 0.000002 -75.922935 -0.000006 0.000000 0.000000 0.000000 5.874700 1.001687 -1.551851 0.544184 6.092847 11.960003 -19.126910 9.551824 46.232792 179.999349 80.056593 -179.999349 0.000000 0.000000 0.000000 
1.495914 84.101318 61.421661 0.000000 0.000000 0.000000 9.308341 -0.695504 -4.675356 -93.164921 -5.323181 10.669006 93.567670 -10.246467 -4.918776 -19.814548 4.278536 -12.117167 0.000000 0.000000 0.000000 9.308341 -0.695504 -4.675356 -13.170665 -7.812002 10.110835 50.663358 2.171473 -2.579287 -29.731311 -6.316941 -4.226700 0.000000 0.000000 0.000000 9.308341 -0.695504 -4.675356 0.000001 0.000000 0.000000 11.930574 4.744317 4.038060 3.046577 1.298632 -1.033836 0.000000 0.000000 0.000000 5.465190 1.100708 -1.418278 0.199079 -0.183894 0.204384 0.000000 0.000000 0.000000 5.465190 1.100708 -1.418278 0.484228 -4.216895 -8.753551 26.718389 -0.445353 -58.949887 -0.000000 -74.504291 -0.000008 0.000000 0.000000 0.000000 5.465190 1.100708 -1.418278 0.637463 5.782875 13.068251 -15.441610 5.929110 46.019591 -179.999377 79.595534 179.999363 0.000000 0.000000 0.000000 
1.641632 83.714714 67.200768 0.000000 0.000000 0.000000 6.743451 0.024322 -6.554831 -84.493968 -5.569180 11.222078 85.490718 -10.279890 -4.399718 -26.327232 4.749305 -15.066363 0.000000 0.000000 0.000000 6.743451 0.024322 -6.554831 -9.017976 -8.592918 11.124403 51.257271 3.647531 -2.399407 -21.801004 -6.892921 -3.393080 0.000000 0.000000 0.000000 6.743451 0.024322 -6.554831 0.000000 0.000000 0.000000 11.365080 4.938219 5.117360 2.674677 1.294173 -0.721923 0.000000 0.000000 0.000000 4.970134 1.117498 -1.106079 0.829902 -0.202139 0.190270 0.000000 0.000000 0.000000 4.970134 1.117498 -1.106079 0.469322 -4.101328 -7.702680 28.541617 1.692267 -61.339784 0.000009 -73.136020 -0.000007 0.000000 0.000000 0.000000 4.970134 1.117498 -1.106079 0.739572 5.326417 14.454190 -11.326737 2.674846 45.762534 179.999964 80.896358 -179.999964 0.000000 0.000000 0.000000 
1.787697 83.281464 72.586067 0.000000 0.000000 0.000000 3.920646 1.162319 -8.035126 -75.589847 -5.003496 11.354258 79.045301 -10.182118 -3.599310 -29.796099 5.568844 -15.425637 0.000000 0.000000 0.000000 3.920646 1.162319 -8.035126 -6.939160 -9.822955 11.641818 51.980233 5.687474 -1.842475 -8.042832 -6.366612 -3.226465 0.000000 0.000000 0.000000 3.920646 1.162319 -8.035126 0.000000 0.000000 0.000000 10.751041 4.447862 5.708733 2.381761 1.187800 -0.371396 0.000000 0.000000 0.000000 4.548961 1.051279 -0.732685 1.265485 -0.205936 0.169113 0.000000 0.000000 0.000000 4.548961 1.051279 -0.732685 0.464095 -4.022993 -6.894647 29.150114 3.980695 -63.478863 -0.000013 -71.680008 -0.000018 0.000000 0.000000 0.000000 4.548961 1.051279 -0.732685 0.828049 4.890933 15.978121 -7.532234 0.235917 45.471619 -179.999868 84.155881 179.999841 0.000000 0.000000 0.000000 
